<svg width="141" height="24" viewBox="0 0 141 24" fill="none" xmlns="http://www.w3.org/2000/svg">
<path d="M35.457 15.5508C36.1211 15.9258 36.793 16.2656 37.4727 16.5703C38.1602 16.8672 38.8711 17.1211 39.6055 17.332C40.3398 17.5352 41.1094 17.6914 41.9141 17.8008C42.7266 17.9102 43.5898 17.9648 44.5039 17.9648C45.6055 17.9648 46.543 17.8945 47.3164 17.7539C48.0898 17.6055 48.7188 17.4062 49.2031 17.1562C49.6953 16.8984 50.0508 16.5938 50.2695 16.2422C50.4961 15.8906 50.6094 15.5078 50.6094 15.0938C50.6094 14.4297 50.332 13.9062 49.7773 13.5234C49.2227 13.1328 48.3672 12.9375 47.2109 12.9375C46.7031 12.9375 46.168 12.9727 45.6055 13.043C45.043 13.1055 44.4727 13.1758 43.8945 13.2539C43.3242 13.332 42.7578 13.4062 42.1953 13.4766C41.6406 13.5391 41.1172 13.5703 40.625 13.5703C39.8047 13.5703 39.0156 13.4648 38.2578 13.2539C37.5078 13.043 36.8398 12.7266 36.2539 12.3047C35.6758 11.8828 35.2148 11.3555 34.8711 10.7227C34.5273 10.0898 34.3555 9.35156 34.3555 8.50781C34.3555 8.00781 34.4219 7.51172 34.5547 7.01953C34.6953 6.52734 34.9141 6.05859 35.2109 5.61328C35.5156 5.16016 35.9062 4.74219 36.3828 4.35938C36.8594 3.96875 37.4336 3.63281 38.1055 3.35156C38.7852 3.07031 39.5664 2.85156 40.4492 2.69531C41.3398 2.53125 42.3516 2.44922 43.4844 2.44922C44.3047 2.44922 45.1289 2.49609 45.957 2.58984C46.7852 2.67578 47.5898 2.80078 48.3711 2.96484C49.1602 3.12891 49.918 3.32812 50.6445 3.5625C51.3711 3.78906 52.0469 4.04297 52.6719 4.32422L51.043 7.32422C50.5273 7.09766 49.9727 6.89062 49.3789 6.70312C48.7852 6.50781 48.1641 6.33984 47.5156 6.19922C46.8672 6.05859 46.1953 5.94922 45.5 5.87109C44.8125 5.78516 44.1094 5.74219 43.3906 5.74219C42.3672 5.74219 41.5234 5.81641 40.8594 5.96484C40.2031 6.11328 39.6797 6.30469 39.2891 6.53906C38.8984 6.76562 38.625 7.02344 38.4688 7.3125C38.3203 7.59375 38.2461 7.875 38.2461 8.15625C38.2461 8.70312 38.4922 9.15234 38.9844 9.50391C39.4766 9.84766 40.2266 10.0195 41.2344 10.0195C41.6406 10.0195 42.1055 9.99219 42.6289 9.9375C43.1602 9.875 43.7148 9.80859 44.293 9.73828C44.8789 9.66797 45.4727 9.60547 46.0742 9.55078C46.6836 9.48828 47.2734 9.45703 47.8438 9.45703C48.9219 9.45703 49.875 9.57812 50.7031 9.82031C51.5391 10.0625 52.2383 10.4102 52.8008 10.8633C53.3633 11.3086 53.7891 11.8516 54.0781 12.4922C54.3672 13.125 54.5117 13.8359 54.5117 14.625C54.5117 15.6797 54.2656 16.6211 53.7734 17.4492C53.2891 18.2695 52.5938 18.9648 51.6875 19.5352C50.7891 20.0977 49.7031 20.5273 48.4297 20.8242C47.1562 21.1133 45.7383 21.2578 44.1758 21.2578C43.1445 21.2578 42.1367 21.1914 41.1523 21.0586C40.168 20.9336 39.2227 20.7539 38.3164 20.5195C37.418 20.2773 36.5586 19.9922 35.7383 19.6641C34.9258 19.3281 34.1719 18.9609 33.4766 18.5625L35.457 15.5508ZM57.5117 16.6406C57.5117 15.9766 57.6562 15.3711 57.9453 14.8242C58.2344 14.2773 58.668 13.8086 59.2461 13.418C59.8242 13.0195 60.543 12.7148 61.4023 12.5039C62.2695 12.2852 63.2773 12.1758 64.4258 12.1758C65.2773 12.1758 66.1719 12.2383 67.1094 12.3633C68.0547 12.4883 69.0273 12.6797 70.0273 12.9375C69.9883 12.5 69.8555 12.0977 69.6289 11.7305C69.4023 11.3555 69.0859 11.0352 68.6797 10.7695C68.2812 10.4961 67.7969 10.2852 67.2266 10.1367C66.6641 9.98828 66.0234 9.91406 65.3047 9.91406C64.9141 9.91406 64.4844 9.9375 64.0156 9.98438C63.5469 10.0312 63.0625 10.1016 62.5625 10.1953C62.0625 10.2891 61.5664 10.4062 61.0742 10.5469C60.5898 10.6875 60.1367 10.8555 59.7148 11.0508L58.6602 8.20312C59.1836 8.01562 59.7422 7.84375 60.3359 7.6875C60.9375 7.53125 61.5508 7.39844 62.1758 7.28906C62.8008 7.17188 63.4258 7.08203 64.0508 7.01953C64.6758 6.95703 65.2812 6.92578 65.8672 6.92578C68.4531 6.92578 70.375 7.58594 71.6328 8.90625C72.8906 10.2266 73.5195 12.25 73.5195 14.9766V21H70.0508V19.6992C69.6914 19.9102 69.2969 20.1094 68.8672 20.2969C68.4453 20.4844 67.9844 20.6484 67.4844 20.7891C66.9844 20.9297 66.4453 21.0391 65.8672 21.1172C65.2969 21.2031 64.6914 21.2461 64.0508 21.2461C62.9727 21.2461 62.0234 21.1289 61.2031 20.8945C60.3906 20.6602 59.7109 20.3359 59.1641 19.9219C58.6172 19.5078 58.2031 19.0234 57.9219 18.4688C57.6484 17.9062 57.5117 17.2969 57.5117 16.6406ZM61.168 16.5234C61.168 16.75 61.2266 16.9688 61.3438 17.1797C61.4609 17.3828 61.6484 17.5664 61.9062 17.7305C62.1641 17.8867 62.4922 18.0156 62.8906 18.1172C63.2969 18.2109 63.7852 18.2578 64.3555 18.2578C64.9648 18.2578 65.5547 18.2031 66.125 18.0938C66.6953 17.9844 67.2266 17.8398 67.7188 17.6602C68.2109 17.4805 68.6562 17.2734 69.0547 17.0391C69.4531 16.8047 69.7852 16.5625 70.0508 16.3125V15.7031C69.5195 15.5547 68.9922 15.4297 68.4688 15.3281C67.9531 15.2266 67.457 15.1484 66.9805 15.0938C66.5117 15.0312 66.0664 14.9883 65.6445 14.9648C65.2305 14.9414 64.8672 14.9297 64.5547 14.9297C63.9062 14.9297 63.3672 14.9727 62.9375 15.0586C62.5078 15.1445 62.1602 15.2617 61.8945 15.4102C61.6289 15.5508 61.4414 15.7188 61.332 15.9141C61.2227 16.1094 61.168 16.3125 61.168 16.5234ZM80.1992 9.77344H76.8594V7.17188H80.1992V2.87109H83.668V7.17188H87.0078V9.77344H83.668V21H80.1992V9.77344ZM90.0898 7.16016H93.5469V13.9102C93.5469 14.5508 93.6172 15.1367 93.7578 15.668C93.8984 16.1914 94.1367 16.6406 94.4727 17.0156C94.8164 17.3906 95.2695 17.6836 95.832 17.8945C96.4023 18.0977 97.1094 18.1992 97.9531 18.1992C98.3516 18.1992 98.7539 18.1562 99.1602 18.0703C99.5742 17.9844 99.9688 17.8672 100.344 17.7188C100.719 17.5625 101.066 17.3789 101.387 17.168C101.715 16.957 101.996 16.7266 102.23 16.4766V7.16016H105.699V21H102.23V19.8164C101.379 20.3242 100.523 20.6875 99.6641 20.9062C98.8047 21.125 97.9883 21.2344 97.2148 21.2344C95.9492 21.2344 94.8633 21.082 93.957 20.7773C93.0586 20.4727 92.3203 20.0312 91.7422 19.4531C91.1719 18.8672 90.7539 18.1523 90.4883 17.3086C90.2227 16.457 90.0898 15.4883 90.0898 14.4023V7.16016ZM110.105 7.17188H113.574V9.16406C114.34 8.59375 115.148 8.10156 116 7.6875C116.852 7.27344 117.699 6.95703 118.543 6.73828L119.562 9.91406C118.227 10.0469 117.051 10.3477 116.035 10.8164C115.027 11.2773 114.207 11.9297 113.574 12.7734V21H110.105V7.17188ZM122.152 7.17188H125.621V8.34375C126.543 7.82031 127.422 7.45312 128.258 7.24219C129.102 7.03125 129.926 6.92578 130.73 6.92578C131.785 6.92578 132.762 7.08203 133.66 7.39453C134.559 7.69922 135.336 8.15625 135.992 8.76562C136.648 9.375 137.16 10.1367 137.527 11.0508C137.902 11.957 138.09 13.0078 138.09 14.2031V21H134.633V14.7656C134.633 14.0078 134.523 13.332 134.305 12.7383C134.094 12.1367 133.785 11.6328 133.379 11.2266C132.98 10.8125 132.492 10.5 131.914 10.2891C131.344 10.0703 130.703 9.96094 129.992 9.96094C129.617 9.96094 129.23 10 128.832 10.0781C128.441 10.1562 128.055 10.2695 127.672 10.418C127.297 10.5586 126.934 10.7383 126.582 10.957C126.23 11.168 125.91 11.4102 125.621 11.6836V21H122.152V7.17188Z" fill="#F9F9F9"/>
<path fill-rule="evenodd" clip-rule="evenodd" d="M18.8599 2.15283C18.82 2.38077 18.7726 2.61358 18.7175 2.85118C18.0225 5.8463 16.1472 9.26274 13.1687 12.2937C10.1901 15.3247 6.80691 17.2594 3.82437 18.0065C3.1087 18.1858 2.43557 18.2936 1.80767 18.3368C0.661915 16.4979 0 14.3262 0 12C0 5.37258 5.37258 0 12 0C14.5508 0 16.9157 0.795871 18.8599 2.15283ZM20.5888 3.61954C22.6995 5.78233 24 8.73929 24 12C24 18.6274 18.6274 24 12 24C8.53225 24 5.40805 22.5291 3.21729 20.1771C6.89722 19.5499 11.0552 17.2979 14.5952 13.6956C17.6902 10.546 19.745 6.94212 20.5888 3.61954Z" fill="url(#paint0_linear)"/>
<defs>
<linearGradient id="paint0_linear" x1="4" y1="5" x2="20.5" y2="19" gradientUnits="userSpaceOnUse">
<stop stop-color="#FFB846"/>
<stop offset="1" stop-color="#978CFF"/>
</linearGradient>
</defs>
</svg>