<svg width="24" height="24" viewBox="0 0 24 24" fill="none" xmlns="http://www.w3.org/2000/svg">
<path fill-rule="evenodd" clip-rule="evenodd" d="M3 24H21C22.656 24 24 22.656 24 21V3C24 1.344 22.656 0 21 0H3C1.344 0 0 1.344 0 3V21C0 22.656 1.344 24 3 24ZM17.964 9.34425C17.964 13.4062 14.868 18.0983 9.21 18.0983C7.476 18.0983 5.856 17.5883 4.5 16.7243C4.74 16.7542 4.986 16.7663 5.232 16.7663C6.672 16.7663 7.998 16.2743 9.054 15.4462C7.71 15.4222 6.57 14.5343 6.18 13.3103C6.366 13.3463 6.558 13.3643 6.756 13.3643C7.038 13.3643 7.308 13.3283 7.566 13.2563C6.162 12.9743 5.1 11.7262 5.1 10.2382V10.1962C5.514 10.4242 5.988 10.5623 6.492 10.5802C5.67 10.0282 5.124 9.08625 5.124 8.01825C5.124 7.45425 5.274 6.92625 5.538 6.47025C7.056 8.33025 9.324 9.56025 11.88 9.68625C11.832 9.45825 11.802 9.22425 11.802 8.98425C11.802 7.28625 13.182 5.90625 14.88 5.90625C15.762 5.90625 16.56 6.27825 17.124 6.87825C17.826 6.74025 18.486 6.48825 19.08 6.13425C18.846 6.85425 18.36 7.46025 17.724 7.83825C18.348 7.76025 18.942 7.59825 19.494 7.35225C19.08 7.97025 18.558 8.51625 17.958 8.94825C17.964 9.08025 17.964 9.21225 17.964 9.34425Z" fill="#978CFF"/>
</svg>
